<?xml version="1.0" standalone="no"?>
<!DOCTYPE svg PUBLIC "-//W3C//DTD SVG 20010904//EN"
 "http://www.w3.org/TR/2001/REC-SVG-20010904/DTD/svg10.dtd">
<svg version="1.0" xmlns="http://www.w3.org/2000/svg"
 width="498.000000pt" height="498.000000pt" viewBox="0 0 498.000000 498.000000"
 preserveAspectRatio="xMidYMid meet">
<metadata>
Created by potrace 1.14, written by Peter Selinger 2001-2017
</metadata>
<g transform="translate(0.000000,498.000000) scale(0.100000,-0.100000)"
fill="#000000" stroke="none">
<path d="M2160 4387 c-36 -12 -87 -35 -115 -51 -54 -31 -1526 -1491 -1616
-1603 -105 -131 -142 -286 -103 -437 38 -147 2 -106 868 -974 440 -441 822
-816 847 -832 98 -64 247 -93 363 -71 33 6 91 25 130 43 69 31 96 57 864 822
476 475 809 814 832 850 99 147 108 350 23 521 -19 39 -203 229 -825 851 -546
547 -817 811 -854 834 -117 71 -288 90 -414 47z m274 -286 c17 -11 378 -368
802 -793 847 -848 814 -810 801 -918 -3 -27 -13 -64 -23 -82 -9 -18 -361 -379
-783 -802 -614 -615 -776 -773 -816 -792 -59 -28 -137 -32 -193 -9 -54 23
-1574 1542 -1608 1607 -28 56 -32 130 -9 186 11 26 249 271 793 815 427 428
791 786 807 795 64 34 167 31 229 -7z"/>
<path d="M2208 3541 c-30 -19 -52 -44 -67 -73 l-21 -44 0 -1043 c0 -1004 1
-1043 19 -1079 70 -137 248 -149 336 -24 l30 44 3 1036 c2 730 0 1048 -8 1075
-14 47 -65 106 -107 123 -57 24 -133 18 -185 -15z"/>
</g>
</svg>
