<?xml version="1.0" encoding="UTF-8"?> <svg xmlns="http://www.w3.org/2000/svg" xmlns:xlink="http://www.w3.org/1999/xlink" id="Ebene_1" viewBox="0 0 135.03 135.03"><defs><style>.cls-1{fill:url(#Unbenannter_Verlauf_2);}</style><linearGradient id="Unbenannter_Verlauf_2" x1="156.82" y1="314.77" x2="156.82" y2="313.77" gradientTransform="translate(-11954.97 31843.66) scale(76.66 -101.08)" gradientUnits="userSpaceOnUse"><stop offset="0" stop-color="#042340"></stop><stop offset=".32" stop-color="#053b63"></stop><stop offset="1" stop-color="#1089a6"></stop></linearGradient></defs><path id="Pfad_304" class="cls-1" d="M105.69,113.69c-4.78-21.15-.5-44.76-.46-45l.12-.66-.46-.49c-4.51-4.84-6.47-11.22-5.81-18.98,.3-3.58,1.12-7.1,2.43-10.45l.53-1.19-23-10.48-11.51,23.23-11.51-23.22-22.98,10.48,.51,1.19c1.3,3.33,2.12,6.83,2.43,10.39,.68,7.79-1.27,14.21-5.8,19.06l-.46,.49,.12,.66c.04,.24,4.33,23.84-.46,45l-.2,.87,16.19,11.26c3.13,2.19,7.28,2.23,10.46,.12l11.68-7.72,11.68,7.72c3.18,2.12,7.33,2.07,10.46-.12l16.19-11.26-.16-.89Zm-51.3,10.04c-2.27,1.51-5.24,1.48-7.48-.09l-14.74-10.24c4.17-19.46,1.06-40.58,.4-44.54,4.68-5.31,6.78-12.41,6.06-20.61-.31-3.4-1.03-6.76-2.17-9.98l18.34-8.36,11.27,22.73-3.87,7.8v54.25l2.94,1.94-10.74,7.09Zm33.78-.09c-2.24,1.57-5.2,1.6-7.48,.09l-15.84-10.46V61.07l15.43-31.16,18.32,8.36c-1.13,3.22-1.86,6.58-2.16,9.98-.72,8.2,1.38,15.31,6.05,20.61-.65,3.96-3.77,25.08,.4,44.54l-14.72,10.24Zm-16.63-45.86c-2.08,0-3.76,1.69-3.76,3.77s1.69,3.76,3.77,3.76c2.08,0,3.76-1.69,3.76-3.77h0c0-2.08-1.69-3.76-3.76-3.76h0Zm0,5.14c-.76,0-1.38-.62-1.38-1.38s.62-1.38,1.38-1.38,1.38,.62,1.38,1.38c0,.76-.62,1.38-1.38,1.38h0Zm-3.76,9.37c0-2.07,1.69-3.75,3.76-3.75s3.75,1.69,3.75,3.76-1.69,3.75-3.76,3.75c-2.07,0-3.75-1.68-3.75-3.75h0Zm.03,10.62c0-2.07,1.69-3.75,3.76-3.74,2.07,0,3.75,1.69,3.74,3.76s-1.69,3.75-3.76,3.74c-2.06,0-3.73-1.68-3.74-3.74v-.02Zm15.31-41.12l-7.74,5.67h-3.82v2.65h23.18v-2.66h-3.88l-7.74-5.67Zm-3.25,5.67l3.25-2.39,3.25,2.39h-6.5Zm-6.95,35.46c0-.75-.61-1.36-1.36-1.36s-1.36,.61-1.36,1.36,.61,1.36,1.36,1.36,1.36-.61,1.36-1.36Zm0-10.63c0-.75-.61-1.36-1.36-1.36s-1.36,.61-1.36,1.36,.61,1.36,1.36,1.36,1.36-.61,1.36-1.36Z"></path></svg> 