<?xml version="1.0" encoding="UTF-8"?> <svg xmlns="http://www.w3.org/2000/svg" id="a" viewBox="0 0 768.56533 199.97534"><defs><style>.b{fill:#e54a41;}.c{fill:#fff;}</style></defs><g><path class="b" d="M99.98804,199.97534c-6.52344,0-13.04443-2.48145-18.01025-7.44727L7.448,117.99878c-9.93066-9.93066-9.93066-26.08984,0-36.021L81.97778,7.448c9.93066-9.93018,26.08936-9.93115,36.02002,0l74.52979,74.52979c4.81104,4.81104,7.46045,11.20703,7.46045,18.01025,0,6.80371-2.64941,13.2002-7.46045,18.01074l-74.52979,74.5293c-4.96484,4.96387-11.48828,7.44727-18.00977,7.44727Zm-.00049-185.98193c-2.93701,0-5.87402,1.11816-8.11035,3.354L17.34741,91.8772c-4.47217,4.47266-4.47217,11.74951,0,16.22119l74.52979,74.5293c4.47363,4.47363,11.74951,4.47266,16.22119,0l74.52979-74.5293c2.1665-2.16602,3.35986-5.04688,3.35986-8.11035s-1.19336-5.94434-3.35986-8.11084L108.09839,17.34741c-2.23633-2.23584-5.17334-3.354-8.11084-3.354Z"></path><path class="c" d="M99.98804,161.17944c-5.52295,0-10-4.47754-10-10V51.7356c0-5.52295,4.47705-10,10-10s10,4.47705,10,10v99.44385c0,5.52246-4.47705,10-10,10Z"></path></g><g><path class="c" d="M335.0428,104.01705c1.27998-2.50449,3.25742-4.58496,5.69059-5.99176,2.64319-1.4702,5.62718-2.20728,8.65079-2.13991,2.79377-.09115,5.55982,.56668,8.01279,1.90611,2.17558,1.27602,3.91921,3.17024,5.00898,5.44093,.67368,1.44642,1.17695,2.96021,1.51775,4.50967h-30.19654c.32495-1.2681,.75689-2.51638,1.31565-3.72503m28.66691-16.36241c-4.25209-2.4926-9.11445-3.76466-14.04417-3.67351-5.21901-.06341-10.35876,1.28791-14.87635,3.90732l-.11889,.07133c-14.15512,8.39321-18.82727,26.67758-10.43405,40.83666,2.57186,4.44626,6.30085,8.10789,10.78675,10.60049,4.68799,2.61148,9.98229,3.94299,15.34397,3.85977,4.34719-.01585,8.64683-.90748,12.64134-2.62337,3.87561-1.62079,7.3074-4.13717,10.01796-7.34703l-8.34962-8.34566c-1.72778,1.96951-3.89543,3.50708-6.32859,4.48985-2.57979,1.05014-5.34185,1.57719-8.12771,1.55342-3.13854,.05944-6.24141-.69349-8.99952-2.18747-2.58771-1.4385-4.69592-3.60615-6.06308-6.22952-.63802-1.34339-1.12544-2.73433-1.47813-4.15698h42.41783c.23381-1.18488,.42005-2.27068,.53498-3.25346,.11888-.96692,.18229-1.93385,.18625-2.9087,.09115-5.07635-1.11751-10.09325-3.50708-14.57518-2.24295-4.14113-5.55981-7.60065-9.60186-10.01796"></path><path class="c" d="M463.82553,86.58588c-3.44369-1.76345-7.26779-2.65904-11.13548-2.60356-3.86374-.04755-7.67199,.87182-11.08792,2.67093-3.11476,1.62475-5.78965,3.96677-7.82653,6.81998-1.83478-2.89681-4.38287-5.27449-7.41837-6.88735-3.36045-1.76741-7.10926-2.663-10.90166-2.60356-3.80429-.05944-7.55707,.85993-10.90562,2.67093-2.06858,1.11751-3.91128,2.59167-5.46075,4.3353v-5.82135h-13.0376v56.90186h13.0376v-33.89384c-.07132-2.27068,.50725-4.51363,1.67231-6.46333,1.066-1.75156,2.60357-3.17024,4.44229-4.08961,1.96556-.97881,4.1451-1.47416,6.34445-1.43454,3.21384-.09511,6.34841,1.03429,8.76572,3.15439,2.44504,2.26276,3.75277,5.50433,3.55463,8.83308v33.89384l13.04158-.01585v-33.95328c-.05945-2.24295,.51911-4.45815,1.66833-6.38803,1.07788-1.76345,2.63527-3.18213,4.49381-4.08961,1.95366-.96693,4.1134-1.45831,6.29293-1.43454,3.2178-.09511,6.34841,1.03429,8.76572,3.15439,2.44901,2.26276,3.75277,5.50433,3.55859,8.83308v33.89384l13.03762-.01585v-36.73517c.11492-3.99847-.91144-7.94542-2.9523-11.38513-1.94176-3.11872-4.68799-5.65888-7.94937-7.34703"></path><path class="c" d="M524.08565,126.074c-2.9919,3.26139-7.26778,5.04068-11.68629,4.85839l-.00396-.06737c-2.92457,.08322-5.8174-.65782-8.34567-2.13595-2.42523-1.46624-4.3987-3.57445-5.69453-6.09479-2.75812-5.68662-2.75812-12.32827,0-18.01489,1.29583-2.5243,3.2693-4.64044,5.69453-6.11064,2.52035-1.5019,5.41318-2.26672,8.34567-2.20332,2.98002-.07133,5.91645,.69349,8.48435,2.20332,2.41335,1.46624,4.36304,3.58633,5.62717,6.11064,1.39094,2.78981,2.08444,5.8808,2.02104,8.99952,.17436,4.56911-1.41473,9.02726-4.44231,12.45508m3.60616-34.52392c-1.65252-1.90611-3.62993-3.515-5.861-4.73158-3.55065-1.90215-7.52933-2.86114-11.55553-2.78585-4.93368-.0634-9.78019,1.31961-13.94113,3.97469-4.14112,2.64715-7.52931,6.32463-9.83567,10.66786-4.81084,9.43939-4.81084,20.61449,0,30.05388,2.2905,4.34323,5.68265,8.00486,9.83567,10.62031,4.1768,2.61148,9.01538,3.96676,13.94113,3.90732,4.03808,.08718,8.0326-.85597,11.60705-2.7383,2.21124-1.18488,4.17284-2.76207,5.80948-4.63648v6.18989l13.04155-.01981v-56.90186h-13.04155v6.39992Z"></path><path class="c" d="M271.52505,126.074c2.99192,3.26139,7.26778,5.04068,11.6863,4.85839l.00396-.06737c2.92455,.08322,5.81739-.65782,8.34566-2.13595,2.42524-1.46624,4.39871-3.57445,5.69455-6.09479,2.75811-5.68662,2.75811-12.32827,0-18.01489-1.29583-2.5243-3.26931-4.64044-5.69455-6.11064-2.52034-1.5019-5.41319-2.26672-8.34566-2.20332-2.98003-.07133-5.91646,.69349-8.48436,2.20332-2.41335,1.46624-4.36304,3.58633-5.62718,6.11064-1.39094,2.78981-2.08443,5.8808-2.02103,8.99952-.17436,4.56911,1.41472,9.02726,4.4423,12.45508m-3.60615-34.52392c1.65249-1.90611,3.62993-3.515,5.86098-4.73158,3.55067-1.90215,7.52932-2.86114,11.55553-2.78585,4.93369-.0634,9.78019,1.31961,13.94114,3.97469,4.14113,2.64715,7.52932,6.32463,9.83567,10.66786,4.81084,9.43939,4.81084,20.61449,0,30.05388-2.2905,4.34323-5.68266,8.00486-9.83567,10.62031-4.17679,2.61148-9.01538,3.96676-13.94114,3.90732-4.03809,.08718-8.0326-.85597-11.60705-2.7383-2.21124-1.18488-4.17283-2.76207-5.80947-4.63648v6.18989l-13.04158-.01981V56.71309h13.04158v34.83698Z"></path><path class="c" d="M609.07224,104.01705c1.27605-2.50845,3.25349-4.58892,5.69456-5.99176,2.63923-1.47416,5.62717-2.21125,8.64683-2.13991,2.78982-.09115,5.55189,.56668,7.99692,1.90611,2.17559,1.27206,3.91923,3.16628,5.00898,5.44093,.66971,1.44642,1.17301,2.96021,1.51381,4.50967h-30.18863c.32891-1.2681,.76482-2.51638,1.32753-3.72503m28.56786-16.36241c-4.26003-2.4926-9.12238-3.76466-14.06004-3.67351-5.21901-.05944-10.35876,1.29187-14.87635,3.90732l-.03172,.01981c-14.19476,8.38529-18.90651,26.69343-10.52123,40.88818,2.57979,4.4423,6.31275,8.10393,10.80259,10.60049,4.68799,2.61148,9.98232,3.94299,15.34397,3.85977,4.38287,0,8.71815-.89163,12.74042-2.62337,3.87165-1.62475,7.30342-4.14509,10.01796-7.34703l-8.34567-8.34566c-1.73572,1.96951-3.91128,3.50708-6.34444,4.48985-2.57583,1.0541-5.33393,1.58116-8.11583,1.55342-3.1425,.0634-6.24932-.69349-9.01538-2.18747-2.58375-1.4385-4.68799-3.60219-6.04721-6.22952-.64198-1.34339-1.13733-2.73433-1.49004-4.15698h42.33067c.2338-1.18488,.42004-2.27068,.53496-3.25346,.11492-.96692,.1704-1.93781,.16644-2.9087,.08719-5.07238-1.11354-10.08929-3.48725-14.57518-2.24691-4.13717-5.56377-7.59669-9.60185-10.01796"></path><path class="c" d="M677.57922,98.74137c2.61543-1.49001,5.58753-2.24691,8.59927-2.18746,2.62335-.0317,5.22298,.46761,7.64821,1.4702,2.3222,.98674,4.37888,2.51638,5.99176,4.45815l8.53191-8.66665c-2.66302-3.13854-6.01159-5.62718-9.78416-7.27967-8.92026-3.83203-19.11258-3.33271-27.61677,1.35132-4.45419,2.52827-8.1594,6.19386-10.73523,10.62031-5.21109,9.38391-5.21109,20.78885,0,30.17276,2.55599,4.45419,6.26519,8.1396,10.73523,10.66786,4.64043,2.6313,9.89512,3.97866,15.22905,3.90732,4.26396,.0317,8.48435-.83615,12.38771-2.556,3.77653-1.64456,7.1251-4.13717,9.78416-7.27967l-8.53191-8.66268c-1.60892,1.94574-3.6656,3.47538-5.99176,4.45815-2.42523,.99863-5.02485,1.49794-7.64821,1.46624-3.01174,.05944-5.98384-.69349-8.59927-2.18747-2.46487-1.43057-4.47798-3.52293-5.80948-6.04327-2.75415-5.58359-2.75415-12.13013,0-17.71372,1.34734-2.49657,3.36045-4.56911,5.80948-5.99572"></path><path class="c" d="M765.70635,94.584c-1.83084-3.29705-4.53346-6.02346-7.81464-7.88201-3.4754-1.94178-7.40649-2.92851-11.38513-2.85322-3.96676-.05944-7.87408,.94315-11.32173,2.90473-2.13992,1.22055-4.03412,2.81359-5.61133,4.68007V56.71547h-13.04158v85.35477h13.04158v-33.29149c.02775-2.22313,.58254-4.4106,1.65249-6.36426,1.06997-1.9497,2.6749-3.55463,4.62459-4.62459,2.07256-1.13336,4.40267-1.70797,6.7645-1.66834,3.47537-.12285,6.84375,1.20866,9.30069,3.67352,2.42919,2.50053,3.73692,5.8808,3.62201,9.3641v32.91106h13.02753l-.00581-35.79994c.09119-4.07772-.89159-8.10789-2.85316-11.6863"></path><path class="c" d="M586.2497,129.35243c-1.94575,.97485-3.6022,1.3632-5.8412,1.3632-4.08564,0-6.03533-2.23898-6.03533-6.22952v-27.8149h16.29108v-11.29002h-16.29108v-23.92343h-12.9425v23.92343h-13.92924v11.29002h13.92924v27.8149c0,10.60842,5.15558,17.61861,16.44956,17.61861,4.08567,0,7.59273-.78067,11.48421-2.33805l-3.11474-10.41424Z"></path></g></svg> 