<?xml version="1.0" encoding="UTF-8"?> <svg xmlns="http://www.w3.org/2000/svg" xmlns:xlink="http://www.w3.org/1999/xlink" id="Ebene_1" viewBox="0 0 135.03 135.03"><defs><style>.cls-1{fill:url(#Unbenannter_Verlauf_2);}</style><linearGradient id="Unbenannter_Verlauf_2" x1="2.26" y1="312.8" x2="2.26" y2="311.8" gradientTransform="translate(-112.69 22391.6) scale(79.87 -71.41)" gradientUnits="userSpaceOnUse"><stop offset="0" stop-color="#042340"></stop><stop offset=".32" stop-color="#053b63"></stop><stop offset="1" stop-color="#1089a6"></stop></linearGradient></defs><path id="Pfad_306" class="cls-1" d="M106.26,124.5h-4.59v-4.65c0-2.07-1.68-3.76-3.76-3.76h-2.62v-3.15h6.01c.94,0,1.7-.77,1.71-1.71-.02-18.89-15.32-34.2-34.21-34.23v-2.4h2.65c2.41,0,4.36-1.95,4.36-4.36s-1.95-4.36-4.36-4.36h-7.73c-2.41,0-4.36,1.95-4.36,4.36s1.95,4.36,4.36,4.36h2.65v2.4h-.16c-18.9,.02-34.21,15.34-34.23,34.23,0,.94,.77,1.7,1.71,1.71h6.2v3.15h-2.61c-2.08,0-3.76,1.68-3.76,3.76v4.65h-4.74c-.67,.02-1.2,.58-1.18,1.25,.02,.65,.54,1.17,1.18,1.18H106.27c.67-.02,1.2-.58,1.18-1.25-.02-.65-.54-1.17-1.18-1.18h0Zm-42.54-52.33c-1.06,0-1.92-.86-1.92-1.92s.86-1.92,1.92-1.92h7.73c1.06,0,1.92,.86,1.92,1.92s-.86,1.92-1.92,1.92h-7.73Zm-29.3,38.34c.41-17.26,14.52-31.05,31.79-31.07h2.58c17.27,.02,31.37,13.8,31.79,31.07H34.43Zm58.43,2.44v3.15H42.34v-3.15h50.52Zm6.38,11.55H35.95v-4.64c0-.73,.59-1.32,1.32-1.32h60.64c.73,0,1.32,.59,1.32,1.32v4.64Zm-57.51-20c0-.67,.55-1.22,1.22-1.22h49.14c.67-.02,1.24,.51,1.25,1.18s-.51,1.24-1.18,1.25c-.02,0-.05,0-.07,0H42.95c-.67,0-1.21-.54-1.22-1.21h0Zm10.79-4.98c0-.67,.55-1.22,1.22-1.22h27.56c.67,.02,1.2,.58,1.18,1.25-.02,.65-.54,1.17-1.18,1.18h-27.56c-.67,0-1.21-.54-1.22-1.21h0Zm27.96-31.8c0-.67,.55-1.22,1.22-1.22h0c5.12,0,9.26,4.15,9.27,9.27,.02,.67-.51,1.24-1.18,1.25-.67,.02-1.24-.51-1.25-1.18,0-.02,0-.05,0-.07,0-3.77-3.06-6.82-6.83-6.83-.67,0-1.22-.54-1.22-1.22h0s0,0,0,0Zm0-6.04c0-.67,.55-1.22,1.22-1.22h0c8.45,0,15.3,6.86,15.31,15.31,.02,.67-.51,1.24-1.18,1.25-.67,.02-1.24-.51-1.25-1.18,0-.02,0-.05,0-.07-.01-7.1-5.77-12.85-12.87-12.86-.67,0-1.22-.55-1.22-1.22h0Zm0-4.97c0-.67,.55-1.22,1.22-1.22h0c11.19,.01,20.26,9.08,20.27,20.27-.02,.67-.58,1.2-1.25,1.18-.65-.02-1.17-.54-1.18-1.18-.01-9.84-7.99-17.82-17.83-17.83-.67,0-1.22-.54-1.22-1.22h0s0,0,0,0Zm-25.76,10.99c0,.67-.55,1.22-1.22,1.22h0c-3.77,0-6.82,3.06-6.83,6.83-.02,.67-.58,1.2-1.25,1.18-.65-.02-1.17-.54-1.18-1.18,0-5.12,4.15-9.26,9.27-9.27,.67,0,1.22,.55,1.22,1.22Zm0-6.03c0,.67-.55,1.22-1.22,1.22h0c-7.11,0-12.86,5.77-12.87,12.87-.02,.67-.58,1.2-1.25,1.18-.65-.02-1.17-.54-1.18-1.18,.02-8.45,6.86-15.29,15.31-15.3,.67,0,1.22,.55,1.22,1.22h0Zm-21.49,14.08c.01-11.19,9.08-20.26,20.27-20.27,.67-.02,1.24,.51,1.25,1.18,.02,.67-.51,1.24-1.18,1.25-.02,0-.05,0-.07,0-9.84,.01-17.82,7.99-17.83,17.83-.02,.67-.58,1.2-1.25,1.18-.65-.02-1.17-.54-1.18-1.18h0Z"></path></svg> 