<?xml version="1.0" encoding="UTF-8"?> <svg xmlns="http://www.w3.org/2000/svg" xmlns:xlink="http://www.w3.org/1999/xlink" id="Ebene_1" viewBox="0 0 135.03 135.03"><defs><style>.cls-1{fill:url(#Unbenannter_Verlauf_2);}</style><linearGradient id="Unbenannter_Verlauf_2" x1="-156.1" y1="315.49" x2="-156.1" y2="314.49" gradientTransform="translate(18867.66 37621.56) scale(120.44 -119.22)" gradientUnits="userSpaceOnUse"><stop offset="0" stop-color="#042340"></stop><stop offset=".32" stop-color="#053b63"></stop><stop offset="1" stop-color="#1089a6"></stop></linearGradient></defs><path id="Pfad_305" class="cls-1" d="M92.45,51.43c12.02-.08,21.7-9.89,21.62-21.91-.08-11.9-9.71-21.54-21.62-21.62h-.19c-4.54,.03-8.96,1.49-12.62,4.17-5.62,4.11-8.94,10.64-8.95,17.6,0,.42,0,.82,.03,1.2,.64,11.53,10.17,20.56,21.73,20.56Zm-11.37-37.39c3.26-2.38,7.18-3.68,11.22-3.7h.15c10.67,.01,19.32,8.66,19.32,19.33-1,.11-2.01,.16-3.01,.17-8.02,0-15.65-3.45-20.94-9.48l-.9-1.02-.92,1.01c-3.36,3.72-7.84,6.25-12.76,7.22,.6-5.41,3.44-10.32,7.84-13.53h0Zm5.81,8.9c5.72,5.95,13.62,9.32,21.88,9.32,.95,0,1.9-.05,2.85-.14,0,.08-.01,.16-.03,.24-1.5,10.57-11.29,17.91-21.86,16.41-9.13-1.3-16.07-8.86-16.57-18.07-.01-.21-.02-.43-.02-.66,5.21-.89,10.01-3.37,13.76-7.1h0ZM33.7,97.05h41.48c1.55,0,2.8-1.25,2.8-2.8h0v-5.69c0-8.43-6.84-15.26-15.27-15.27h-16.54c-8.43,.01-15.26,6.84-15.27,15.27v5.69c0,1.54,1.25,2.79,2.79,2.8h0Zm-.35-8.48c0-7.08,5.75-12.82,12.83-12.83h16.53c7.08,0,12.82,5.75,12.83,12.83v5.69c0,.2-.16,.36-.36,.36H33.69c-.2,0-.35-.16-.35-.36v-5.69Zm14.72-19.95c0-.67,.55-1.22,1.22-1.22h10.31c.67,.02,1.2,.58,1.18,1.25-.02,.65-.54,1.17-1.18,1.18h-10.31c-.67,0-1.22-.54-1.22-1.22,0,0,0,0,0,0h0Zm34.04,33.42c0-.67-.55-1.22-1.22-1.22H9.13c-.67,.02-1.2,.58-1.18,1.25,.02,.65,.54,1.17,1.18,1.18h28v1.65c0,4.51,3.66,8.16,8.17,8.17h8.88c4.51,0,8.16-3.66,8.17-8.17v-1.65h18.53c.67,0,1.22-.55,1.22-1.22Zm-22.2,2.87c0,3.16-2.56,5.72-5.72,5.73h-8.89c-3.16,0-5.72-2.57-5.73-5.73v-1.65h20.34v1.65ZM15.09,83.12h1.58v11.48h-5.5c-.67,.02-1.2,.58-1.18,1.25,.02,.65,.54,1.17,1.18,1.18h13.42c.67-.02,1.2-.58,1.18-1.25-.02-.65-.54-1.17-1.18-1.18h-5.48v-11.48h1.58c4.3,0,7.79-3.49,7.8-7.79v-12.15c0-1.54-1.25-2.79-2.79-2.79H10.09c-1.54,0-2.79,1.25-2.79,2.79v12.15c0,4.3,3.49,7.78,7.79,7.79Zm-5.36-19.94c0-.2,.16-.35,.35-.35h15.61c.2,0,.36,.15,.36,.34,0,0,0,0,0,0v12.15c0,2.96-2.41,5.35-5.36,5.35h-5.61c-2.96,0-5.36-2.39-5.37-5.35v-12.15Zm111,3.66c-4.48-4.81-10.62-7.74-17.17-8.21h-.05v-2.84c0-1.07-.86-1.94-1.93-1.94-.12,0-.23,0-.34,.03l-9.05,1.58-9.04-1.58c-1.05-.18-2.05,.52-2.24,1.57-.02,.11-.03,.22-.03,.34v2.87h-.05c-3.55,.31-6.99,1.34-10.12,3.04-.09,.04-.18,.08-.26,.14-3.09,1.71-5.8,4.04-7.97,6.83-.41,.53-.32,1.3,.21,1.71,.53,.41,1.3,.32,1.71-.21h0c1.56-2,3.43-3.74,5.54-5.15v6.75c-.02,.67,.51,1.24,1.18,1.25,.67,.02,1.24-.51,1.25-1.18,0-.02,0-.05,0-.07v-8.19c2.43-1.24,5.06-2.05,7.77-2.39l.71,1.68v.93c0,.76,.45,1.45,1.15,1.76l8.95,21.05v38.07h-18.57v-17.76c.02-.67-.51-1.24-1.18-1.25-.67-.02-1.24,.51-1.25,1.18,0,.02,0,.05,0,.07v18.98c0,.67,.55,1.22,1.22,1.22h56.59v-42.47c0-6.62-2.5-12.99-7.03-17.82h0Zm-27.32-9.13l7.66-1.34v6.82l-7.66-1.33v-4.15Zm-10.1,4.91v-6.25l7.66,1.33v4.15l-7.66,1.33v-.57Zm1.3,2.82l7.56-1.32,7.56,1.32-7.56,17.81-7.57-17.81Zm27.76,59.25h-18.96v-38.07l8.95-21.06c.7-.31,1.15-1,1.15-1.76v-.92l.73-1.72c2.84,.31,5.59,1.13,8.14,2.42v61.12Zm12.93,0h-10.5v-59.69c6.56,4.4,10.49,11.77,10.5,19.67v40.02Z"></path></svg> 